<?xml version="1.0" standalone="no"?><!-- Generator: Gravit.io --><svg xmlns="http://www.w3.org/2000/svg" xmlns:xlink="http://www.w3.org/1999/xlink" style="isolation:isolate" viewBox="-772 -676 2476 2116" width="2476" height="2116"><path d=" M -505.689 434.601 L -505.689 434.601 L -200.219 434.601 L -200.219 487.896 L -505.689 487.896 L -505.689 487.896 Q -538.185 487.896 -561.258 464.823 L -561.258 464.823 L -561.258 464.823 Q -584.331 441.75 -584.331 409.254 L -584.331 409.254 L -584.331 189.576 L -584.331 189.576 Q -584.331 157.079 -561.258 134.006 L -561.258 134.006 L -561.258 134.006 Q -538.185 110.934 -505.689 110.934 L -505.689 110.934 L -201.519 110.934 L -201.519 164.228 L -505.689 164.228 L -505.689 164.228 Q -516.088 164.228 -523.562 171.703 L -523.562 171.703 L -523.562 171.703 Q -531.036 179.177 -531.036 189.576 L -531.036 189.576 L -531.036 409.254 L -531.036 409.254 Q -531.036 419.653 -523.562 427.127 L -523.562 427.127 L -523.562 427.127 Q -516.088 434.601 -505.689 434.601 Z  M -28.637 110.934 L 223.538 110.934 L 223.538 110.934 Q 256.035 110.934 279.108 134.006 L 279.108 134.006 L 279.108 134.006 Q 302.18 157.079 302.18 189.576 L 302.18 189.576 L 302.18 487.896 L 248.886 487.896 L 248.886 189.576 L 248.886 189.576 Q 248.886 179.177 241.411 171.703 L 241.411 171.703 L 241.411 171.703 Q 233.937 164.228 223.538 164.228 L 223.538 164.228 L -2.639 164.228 L -2.639 164.228 Q -13.038 164.228 -20.837 171.703 L -20.837 171.703 L -20.837 171.703 Q -28.637 179.177 -28.637 189.576 L -28.637 189.576 L -28.637 487.896 L -81.931 487.896 L -81.931 -12.554 L -28.637 -12.554 L -28.637 110.934 Z  M 399.671 110.934 L 704.49 110.934 L 704.49 110.934 Q 737.637 110.934 760.709 134.006 L 760.709 134.006 L 760.709 134.006 Q 783.782 157.079 783.782 189.576 L 783.782 189.576 L 783.782 487.896 L 478.313 487.896 L 478.313 487.896 Q 445.816 487.896 422.743 464.823 L 422.743 464.823 L 422.743 464.823 Q 399.671 441.75 399.671 409.254 L 399.671 409.254 L 399.671 272.767 L 729.838 272.767 L 729.838 189.576 L 729.838 189.576 Q 729.838 179.177 722.363 171.703 L 722.363 171.703 L 722.363 171.703 Q 714.889 164.228 704.49 164.228 L 704.49 164.228 L 399.671 164.228 L 399.671 110.934 Z  M 478.313 434.601 L 729.838 434.601 L 729.838 326.062 L 452.965 326.062 L 452.965 409.254 L 452.965 409.254 Q 452.965 419.653 460.44 427.127 L 460.44 427.127 L 460.44 427.127 Q 467.914 434.601 478.313 434.601 L 478.313 434.601 Z  M 952.765 487.896 L 899.471 487.896 L 899.471 110.934 L 952.765 110.934 L 952.765 487.896 Z  M 899.471 40.741 L 899.471 -12.554 L 952.765 -12.554 L 952.765 40.741 L 899.471 40.741 Z  M 1084.702 110.934 L 1390.171 110.934 L 1390.171 110.934 Q 1422.668 110.934 1445.741 134.006 L 1445.741 134.006 L 1445.741 134.006 Q 1468.814 157.079 1468.814 189.576 L 1468.814 189.576 L 1468.814 487.896 L 1415.519 487.896 L 1415.519 189.576 L 1415.519 189.576 Q 1415.519 179.177 1408.045 171.703 L 1408.045 171.703 L 1408.045 171.703 Q 1400.57 164.228 1390.171 164.228 L 1390.171 164.228 L 1163.994 164.228 L 1163.994 164.228 Q 1153.595 164.228 1145.796 171.703 L 1145.796 171.703 L 1145.796 171.703 Q 1137.997 179.177 1137.997 189.576 L 1137.997 189.576 L 1137.997 487.896 L 1084.702 487.896 L 1084.702 110.934 Z  M -542.41 -441.511 L -290.235 -441.511 L -290.235 -441.511 Q -257.739 -441.511 -234.666 -418.438 L -234.666 -418.438 L -234.666 -418.438 Q -211.593 -395.366 -211.593 -362.869 L -211.593 -362.869 L -211.593 -143.191 L -211.593 -143.191 Q -211.593 -110.694 -234.666 -87.622 L -234.666 -87.622 L -234.666 -87.622 Q -257.739 -64.549 -290.235 -64.549 L -290.235 -64.549 L -595.705 -64.549 L -595.705 -564.999 L -542.41 -564.999 L -542.41 -441.511 Z  M -264.888 -143.191 L -264.888 -143.191 L -264.888 -362.869 L -264.888 -362.869 Q -264.888 -373.268 -272.362 -380.742 L -272.362 -380.742 L -272.362 -380.742 Q -279.836 -388.216 -290.235 -388.216 L -290.235 -388.216 L -516.413 -388.216 L -516.413 -388.216 Q -526.812 -388.216 -534.611 -380.742 L -534.611 -380.742 L -534.611 -380.742 Q -542.41 -373.268 -542.41 -362.869 L -542.41 -362.869 L -542.41 -143.191 L -542.41 -143.191 Q -542.41 -132.792 -534.611 -125.318 L -534.611 -125.318 L -534.611 -125.318 Q -526.812 -117.843 -516.413 -117.843 L -516.413 -117.843 L -290.235 -117.843 L -290.235 -117.843 Q -279.836 -117.843 -272.362 -125.318 L -272.362 -125.318 L -272.362 -125.318 Q -264.888 -132.792 -264.888 -143.191 Z  M -114.753 -143.191 L -114.753 -564.999 L -61.458 -564.999 L -61.458 -143.191 L -61.458 -143.191 Q -61.458 -132.792 -53.984 -125.318 L -53.984 -125.318 L -53.984 -125.318 Q -46.51 -117.843 -36.111 -117.843 L -36.111 -117.843 L 27.583 -117.843 L 27.583 -64.549 L -36.111 -64.549 L -36.111 -64.549 Q -68.608 -64.549 -91.68 -87.622 L -91.68 -87.622 L -91.68 -87.622 Q -114.753 -110.694 -114.753 -143.191 L -114.753 -143.191 Z  M 208.265 -441.511 L 208.265 -441.511 L 434.442 -441.511 L 434.442 -441.511 Q 467.589 -441.511 490.661 -418.438 L 490.661 -418.438 L 490.661 -418.438 Q 513.734 -395.366 513.734 -362.869 L 513.734 -362.869 L 513.734 -143.191 L 513.734 -143.191 Q 513.734 -110.694 490.661 -87.622 L 490.661 -87.622 L 490.661 -87.622 Q 467.589 -64.549 434.442 -64.549 L 434.442 -64.549 L 208.265 -64.549 L 208.265 -64.549 Q 175.768 -64.549 152.695 -87.622 L 152.695 -87.622 L 152.695 -87.622 Q 129.623 -110.694 129.623 -143.191 L 129.623 -143.191 L 129.623 -362.869 L 129.623 -362.869 Q 129.623 -395.366 152.695 -418.438 L 152.695 -418.438 L 152.695 -418.438 Q 175.768 -441.511 208.265 -441.511 Z  M 434.442 -388.216 L 434.442 -388.216 L 208.265 -388.216 L 208.265 -388.216 Q 197.866 -388.216 190.392 -380.742 L 190.392 -380.742 L 190.392 -380.742 Q 182.917 -373.268 182.917 -362.869 L 182.917 -362.869 L 182.917 -143.191 L 182.917 -143.191 Q 182.917 -132.792 190.392 -125.318 L 190.392 -125.318 L 190.392 -125.318 Q 197.866 -117.843 208.265 -117.843 L 208.265 -117.843 L 434.442 -117.843 L 434.442 -117.843 Q 444.841 -117.843 452.315 -125.318 L 452.315 -125.318 L 452.315 -125.318 Q 459.79 -132.792 459.79 -143.191 L 459.79 -143.191 L 459.79 -362.869 L 459.79 -362.869 Q 459.79 -373.268 452.315 -380.742 L 452.315 -380.742 L 452.315 -380.742 Q 444.841 -388.216 434.442 -388.216 Z  M 706.765 -117.843 L 706.765 -117.843 L 1012.234 -117.843 L 1012.234 -64.549 L 706.765 -64.549 L 706.765 -64.549 Q 674.268 -64.549 651.195 -87.622 L 651.195 -87.622 L 651.195 -87.622 Q 628.123 -110.694 628.123 -143.191 L 628.123 -143.191 L 628.123 -362.869 L 628.123 -362.869 Q 628.123 -395.366 651.195 -418.438 L 651.195 -418.438 L 651.195 -418.438 Q 674.268 -441.511 706.765 -441.511 L 706.765 -441.511 L 1010.934 -441.511 L 1010.934 -388.216 L 706.765 -388.216 L 706.765 -388.216 Q 696.366 -388.216 688.892 -380.742 L 688.892 -380.742 L 688.892 -380.742 Q 681.417 -373.268 681.417 -362.869 L 681.417 -362.869 L 681.417 -143.191 L 681.417 -143.191 Q 681.417 -132.792 688.892 -125.318 L 688.892 -125.318 L 688.892 -125.318 Q 696.366 -117.843 706.765 -117.843 Z  M 1287.807 -279.677 L 1435.992 -441.511 L 1506.185 -441.511 L 1335.252 -253.03 L 1505.535 -64.549 L 1435.992 -64.549 L 1287.807 -226.383 L 1183.817 -226.383 L 1183.817 -64.549 L 1130.522 -64.549 L 1130.522 -564.999 L 1183.817 -564.999 L 1183.817 -279.677 L 1287.807 -279.677 Z " fill-rule="evenodd" fill="rgb(0,0,0)"/><path d=" M -504.678 650.38 C -576.171 650.38 -634.665 708.874 -634.665 780.367 L -634.665 1170.328 C -634.665 1241.82 -576.171 1300.315 -504.678 1300.315 L -114.717 1300.315 C -43.224 1300.315 15.27 1241.82 15.27 1170.328 L 15.27 780.367 C 15.27 708.874 -43.224 650.38 -114.717 650.38 L -504.678 650.38 Z  M -303.588 842.305 C -238.594 842.305 -209.152 887.248 -209.152 981.424 C -210.268 1024.073 -218.718 1054.237 -230.552 1075.488 C -253.874 1117.372 -290.338 1124.637 -309.697 1124.637 C -374.691 1124.637 -407.187 1079.564 -407.187 988.541 C -407.187 855.272 -339.399 842.305 -303.588 842.305 Z  M -309.697 887.996 C -335.695 887.996 -348.303 920.493 -348.303 985.486 C -348.303 1047.197 -335.727 1075.892 -309.697 1075.892 C -283.7 1075.892 -274.146 1043.135 -274.146 981.424 C -274.146 919.745 -283.667 888.028 -309.697 888.028 L -309.697 887.996 Z " fill="rgb(255,0,0)"/><path d=" M 1076.831 650.38 C 1005.338 650.38 946.844 708.874 946.844 780.367 L 946.844 1170.328 C 946.844 1241.82 1005.338 1300.315 1076.831 1300.315 L 1466.792 1300.315 C 1538.284 1300.315 1596.779 1241.82 1596.779 1170.328 L 1596.779 780.367 C 1596.779 708.874 1538.284 650.38 1466.792 650.38 L 1076.831 650.38 Z  M 1277.92 842.305 C 1342.914 842.305 1372.356 887.248 1372.356 981.424 C 1369.041 1108.129 1300.993 1124.637 1271.811 1124.637 C 1206.818 1124.637 1174.321 1079.564 1174.321 988.541 C 1174.321 855.272 1242.109 842.305 1277.92 842.305 Z  M 1271.811 887.996 C 1245.814 887.996 1233.205 920.493 1233.205 985.486 C 1233.205 1047.197 1245.781 1075.892 1271.811 1075.892 C 1297.808 1075.892 1307.362 1043.135 1307.362 981.424 C 1307.362 919.745 1297.841 888.028 1271.811 888.028 L 1271.811 887.996 Z " fill="rgb(255,0,0)"/><path d=" M 676.037 650.38 L 286.076 650.38 C 214.584 650.38 156.089 708.874 156.089 780.367 L 156.089 1170.328 C 156.089 1241.82 214.584 1300.315 286.076 1300.315 L 676.037 1300.315 C 747.53 1300.315 806.024 1241.82 806.024 1170.328 L 806.024 780.367 C 806.024 708.874 747.53 650.38 676.037 650.38 Z  M 471.308 1124.897 C 442.061 1124.897 419.378 1121.582 403.13 1111.801 L 403.13 1059.904 C 422.53 1072.837 442.093 1079.304 468.123 1079.304 C 481.057 1076.152 513.554 1072.837 513.554 1040.341 C 513.554 1007.844 471.308 1001.344 455.059 1001.344 L 428.997 1001.344 L 428.997 955.784 L 451.875 955.784 C 487.524 955.784 503.772 942.85 503.772 920.135 C 503.772 897.387 490.838 887.638 461.526 887.638 C 442.093 887.638 425.845 894.105 409.597 903.887 L 409.597 855.109 C 428.997 845.328 451.842 842.013 477.742 842.013 C 507.087 842.013 565.613 851.794 565.613 910.321 C 565.613 946.132 546.05 968.815 510.239 978.629 C 529.802 981.781 572.08 994.878 572.08 1043.623 C 575.232 1111.768 503.772 1124.865 471.275 1124.865 L 471.308 1124.897 Z " fill="rgb(255,0,0)"/><line x1="15.27" y1="975.347" x2="159.7" y2="975.347" vector-effect="non-scaling-stroke" stroke-width="72.215" stroke="rgb(255,0,0)" stroke-linejoin="miter" stroke-linecap="square" stroke-miterlimit="3"/><line x1="806.024" y1="975.347" x2="954.065" y2="975.347" vector-effect="non-scaling-stroke" stroke-width="72.215" stroke="rgb(255,0,0)" stroke-linejoin="miter" stroke-linecap="square" stroke-miterlimit="3"/></svg>